<mxfile host="app.diagrams.net" modified="2020-12-12T16:23:45.086Z" agent="5.0 (Windows NT 10.0; Win64; x64) AppleWebKit/537.36 (KHTML, like Gecko) Chrome/87.0.4280.88 Safari/537.36" etag="KHwcV35LtTP1qQZ6mbIX" version="13.6.10" type="github">
  <diagram id="31R5Izs2Xs6WLD_rtgYp" name="Page-1">
    <mxGraphModel dx="970" dy="543" grid="1" gridSize="10" guides="1" tooltips="1" connect="1" arrows="1" fold="1" page="1" pageScale="1" pageWidth="827" pageHeight="1169" math="0" shadow="0">
      <root>
        <mxCell id="0" />
        <mxCell id="1" parent="0" />
        <mxCell id="CrssYmQT8G1LVJopqUyx-1" value="frondend" style="rounded=0;whiteSpace=wrap;html=1;" vertex="1" parent="1">
          <mxGeometry x="320" y="400" width="120" height="40" as="geometry" />
        </mxCell>
        <mxCell id="CrssYmQT8G1LVJopqUyx-2" style="edgeStyle=orthogonalEdgeStyle;rounded=0;orthogonalLoop=1;jettySize=auto;html=1;exitX=0.5;exitY=1;exitDx=0;exitDy=0;" edge="1" parent="1" source="CrssYmQT8G1LVJopqUyx-1" target="CrssYmQT8G1LVJopqUyx-1">
          <mxGeometry relative="1" as="geometry" />
        </mxCell>
        <mxCell id="CrssYmQT8G1LVJopqUyx-4" value="backend" style="rounded=0;whiteSpace=wrap;html=1;" vertex="1" parent="1">
          <mxGeometry x="320" y="480" width="120" height="40" as="geometry" />
        </mxCell>
        <mxCell id="CrssYmQT8G1LVJopqUyx-5" value="Crypto API" style="rounded=0;whiteSpace=wrap;html=1;" vertex="1" parent="1">
          <mxGeometry x="480" y="480" width="120" height="40" as="geometry" />
        </mxCell>
      </root>
    </mxGraphModel>
  </diagram>
</mxfile>
